<svg version="1.1" xmlns="http://www.w3.org/2000/svg" width="768" height="768" viewBox="0 0 768 768">
<path d="M240 448.5h288c-24 57-79.5 96-144 96s-120-39-144-96zM384 607.5c102.003 0 187.848-67.219 214.5-160.5 3 0 6 1.5 9 1.5 34.5 0 64.5-30 64.5-64.5s-30-64.5-64.5-64.5c-3 0-6 1.5-9 1.5-26.647-93.263-112.495-160.5-214.5-160.5-102.003 0-187.848 67.219-214.5 160.5-3 0-6-1.5-9-1.5-34.5 0-64.5 30-64.5 64.5s30 64.5 64.5 64.5c3 0 6-1.5 9-1.5 26.647 93.263 112.495 160.5 214.5 160.5zM733.5 405c-7.5 48-42 88.5-88.5 102-42.402 88.658-142.251 165-261 165-118.325 0-218.283-75.073-259.5-165-46.5-13.5-82.5-54-90-102-1.5-6-3-13.5-3-21s1.5-15 3-21c7.5-48 43.5-88.5 90-102 16.5-36 39-67.5 69-93 51-45 117-72 190.5-72 120.438 0 217.664 73.72 259.5 165 46.5 13.5 82.5 54 90 102 1.5 6 3 13.5 3 21s-1.5 15-3 21zM264 336c0-22.5 18-40.5 40.5-40.5s39 18 39 40.5-16.5 40.5-39 40.5-40.5-18-40.5-40.5zM424.5 336c0-22.5 16.5-40.5 39-40.5s40.5 18 40.5 40.5-18 40.5-40.5 40.5-39-18-39-40.5z"></path>
</svg>
