<svg version="1.1" xmlns="http://www.w3.org/2000/svg" width="640" height="640" viewBox="0 0 640 640">
<path d="M105.664 391.616c14.848 60.128 33.728 86.432 96.704 113.984 63.008 27.52 92.928 57.6 117.632 57.6 24.672 0 52.736-26.304 115.712-53.888 63.008-27.552 46.176-35.936 61.024-96.064l-176.736 85.952-214.336-107.584zM624.352 234.752l-266.4-149.184c-20.864-11.68-55.040-11.68-75.904 0l-266.432 149.184c-20.864 11.68-20.864 30.816 0 42.496l266.4 149.184c20.864 11.68 55.040 11.68 75.904 0l172.224-96.448-186.752-43.744c-7.2 1.76-15.104 2.752-23.392 2.752-33.664 0-60.928-16.192-60.928-36.192 0-20.064 27.296-36.256 60.928-36.256 26.112 0 48.32 9.824 56.96 23.488l197.824 64.928 49.568-27.744c20.832-11.648 20.832-30.784 0-42.464zM542.944 517.44c-2.080 12.32 41.056 32.576 45.152-3.424 18.528-162.304-13.312-208.992-13.312-208.992l-44.64 24.992c0-0.032 37.856 36 12.8 187.424z"></path>
</svg>
