<svg version="1.1" xmlns="http://www.w3.org/2000/svg" width="512" height="512" viewBox="0 0 512 512">
<path d="M388.892 8.428c-2.788-5.19-8.203-8.428-14.095-8.428h-237.594c-5.892 0-11.307 3.238-14.095 8.428-17.734 33.010-27.108 71.592-27.108 111.572 0 52.706 16.186 102.414 45.577 139.969 22.714 29.023 51.24 48.27 82.423 56.086v163.945h-48c-8.836 0-16 7.163-16 16s7.164 16 16 16h160c8.837 0 16-7.163 16-16s-7.163-16-16-16h-48v-163.945c31.184-7.816 59.709-27.062 82.423-56.086 29.391-37.555 45.577-87.263 45.577-139.969 0-39.98-9.374-78.561-27.108-111.572zM147.050 32h217.9c12.487 26.451 19.050 56.669 19.050 88 0 2.682-0.054 5.348-0.148 8h-255.703c-0.095-2.652-0.148-5.318-0.148-8-0.001-31.332 6.563-61.549 19.049-88z"></path>
</svg>
