<svg version="1.1" xmlns="http://www.w3.org/2000/svg" width="768" height="768" viewBox="0 0 768 768">
<path d="M576 352.5v-160.5h-384v160.5h384zM528 544.5c27 0 48-21 48-48s-21-48-48-48-48 21-48 48 21 48 48 48zM240 544.5c27 0 48-21 48-48s-21-48-48-48-48 21-48 48 21 48 48 48zM127.5 511.5v-319.5c0-112.5 115.5-127.5 256.5-127.5s256.5 15 256.5 127.5v319.5c0 28.5-13.5 54-33 72v57c0 18-13.5 31.5-31.5 31.5h-31.5c-18 0-33-13.5-33-31.5v-33h-255v33c0 18-15 31.5-33 31.5h-31.5c-18 0-31.5-13.5-31.5-31.5v-57c-19.5-18-33-43.5-33-72z"></path>
</svg>
