<svg version="1.1" xmlns="http://www.w3.org/2000/svg" width="1024" height="1024" viewBox="0 0 1024 1024">
<path d="M672 192h128v32h-544v-32h128v-32c0-35.593 28.616-64 63.917-64h160.167c35.249 0 63.917 28.654 63.917 64v32zM256 256h544v607.956c0 53.066-42.982 96.044-96.004 96.044h-351.992c-53.317 0-96.004-43.001-96.004-96.044v-607.956zM384 352v512h32v-512h-32zM512 352v512h32v-512h-32zM640 352v512h32v-512h-32zM448.094 128c-17.725 0-32.094 14.204-32.094 32v32h224v-32c0-17.673-14.012-32-32.094-32h-159.813z"></path>
</svg>
